<svg width="900" height="1200" viewBox="0 0 900 1200" fill="none" xmlns="http://www.w3.org/2000/svg">
  <rect width="900" height="1200" fill="#F0F8FF"/>
  <rect width="900" height="370" rx="72" fill="url(#hero)"/>
  <path d="M0 315C118 366 218 348 336 321C464 291 583 285 701 336C775 368 836 380 900 357V1200H0V315Z" fill="#F7FBFF"/>
  <rect x="115" y="430" width="670" height="320" rx="48" fill="white" stroke="#FFFFFF" stroke-width="10"/>
  <path d="M155 690C229 598 295 603 371 646C454 694 509 688 581 606C652 525 718 537 785 610V702C785 728.51 763.51 750 737 750H163C136.49 750 115 728.51 115 702V690H155Z" fill="#DBEAFE"/>
  <circle cx="690" cy="506" r="58" fill="#BFDBFE"/>
  <rect x="115" y="790" width="318" height="122" rx="34" fill="white"/>
  <rect x="467" y="790" width="318" height="122" rx="34" fill="white"/>
  <rect x="115" y="954" width="670" height="132" rx="42" fill="#1E3A8A"/>
  <rect x="169" y="1000" width="92" height="48" rx="18" fill="white" fill-opacity=".12"/>
  <rect x="309" y="1000" width="92" height="48" rx="18" fill="white" fill-opacity=".12"/>
  <rect x="449" y="1000" width="92" height="48" rx="18" fill="white" fill-opacity=".12"/>
  <rect x="589" y="1000" width="92" height="48" rx="18" fill="white" fill-opacity=".12"/>
  <text x="450" y="144" text-anchor="middle" fill="white" font-family="Arial, sans-serif" font-size="76" font-weight="800">Badr</text>
  <text x="450" y="242" text-anchor="middle" fill="white" font-family="Arial, sans-serif" font-size="76" font-weight="800">Sara</text>
  <text x="274" y="836" text-anchor="middle" fill="#60A5FA" font-family="Arial, sans-serif" font-size="30" font-weight="800">Date</text>
  <text x="626" y="836" text-anchor="middle" fill="#60A5FA" font-family="Arial, sans-serif" font-size="30" font-weight="800">Time</text>
  <text x="274" y="878" text-anchor="middle" fill="#1E3A8A" font-family="Arial, sans-serif" font-size="28" font-weight="700">25 June</text>
  <text x="626" y="878" text-anchor="middle" fill="#1E3A8A" font-family="Arial, sans-serif" font-size="28" font-weight="700">8:00 PM</text>
  <defs>
    <linearGradient id="hero" x1="123" y1="22" x2="792" y2="365" gradientUnits="userSpaceOnUse">
      <stop stop-color="#3B82F6"/>
      <stop offset="1" stop-color="#1D4ED8"/>
    </linearGradient>
  </defs>
</svg>
